<?xml version="1.0" encoding="utf-8"?>
<!-- Generator: Adobe Illustrator 24.2.1, SVG Export Plug-In . SVG Version: 6.00 Build 0)  -->
<svg version="1.1" id="Layer_1" xmlns="http://www.w3.org/2000/svg" xmlns:xlink="http://www.w3.org/1999/xlink" x="0px" y="0px"
	 viewBox="0 0 1065.5 1069.6" style="enable-background:new 0 0 1065.5 1069.6;" xml:space="preserve">
<style type="text/css">
	.st0{opacity:0.1;fill:#606060;}
	.st1{fill:#F7A491;}
	.st2{fill:#F48C7F;}
	.st3{fill:#184655;}
	.st4{fill:#13375B;}
	.st5{fill:#3C8F7C;}
	.st6{fill:#50BFA5;}
	.st7{fill:#FAE0B2;}
	.st8{fill:#F47458;}
	.st9{fill:#FFFFFF;}
	.st10{fill:#355389;}
	.st11{fill:#466EB6;}
	.st12{fill:#F7CC7F;}
	.st13{fill:#F79C8D;}
	.st14{fill:#B75742;}
	.st15{fill:#86B1F2;}
	.st16{fill:#07345A;}
	.st17{fill:#F8A492;}
</style>
<ellipse class="st0" cx="487.4" cy="1065.2" rx="87.3" ry="4.3"/>
<ellipse class="st0" cx="770" cy="869" rx="57.9" ry="2.9"/>
<ellipse class="st0" cx="975.7" cy="871.5" rx="19.5" ry="1"/>
<ellipse class="st0" cx="639.5" cy="864.3" rx="57.9" ry="2.9"/>
<ellipse class="st0" cx="631.6" cy="1053.6" rx="61.8" ry="3.1"/>
<g>
	<path class="st4" d="M782.2,866.4c11.4-62.3,32.7-122.8,64.3-178.9c8.9-15.9,18.7-31.4,29.1-46.5c4.9-7.1-7.3-13.7-12.2-6.6
		c-37.4,54.1-65.5,113.8-82.7,176c-4.8,17.4-8.7,34.9-11.7,52.6c-0.6,3.4,0.9,6.8,4.8,7.8C777,871.7,781.5,869.8,782.2,866.4
		L782.2,866.4z"/>
</g>
<g>
	<path class="st4" d="M924.3,658.2c9.7,8.3,14.6,19.9,18.7,31.2c5,13.7,8.9,27.7,12,41.8c6.2,27.8,9.2,56.2,11,84.5
		c1.1,16.4,1.8,32.9,2.4,49.3c0.3,8.5,14.8,8.6,14.4,0c-2.4-59.3-5-119.8-25.3-176.7c-5.1-14.2-11-29.1-23.6-39.2
		c-2.8-2.2-7-2.5-9.7,0C921.7,651.6,921.5,655.9,924.3,658.2L924.3,658.2z"/>
</g>
<path class="st4" d="M945.7,607.9H753.5c-13.7,0-24.9,10.2-24.9,22.9l0,0c0,12.6,11.1,24,24.8,24l223.5,8.1c12.7,0,27-17.2,30-28.6
	l57.6-213.2c3.5-13.1-5.3-26.4-19.6-29.4l0,0c-13.9-3-27.9,4.8-31.5,17.6l-52.1,187.3C959.7,603.2,953.2,607.9,945.7,607.9z"/>
<rect x="529.8" y="499.8" transform="matrix(-1 -1.224647e-16 1.224647e-16 -1 1314.2178 1083.5791)" class="st15" width="254.6" height="83.9"/>
<rect x="424.3" y="495.1" transform="matrix(-1 -1.224647e-16 1.224647e-16 -1 1039.0371 1317.3887)" class="st7" width="190.4" height="327.3"/>
<rect x="773" y="483.4" transform="matrix(-1 -1.224647e-16 1.224647e-16 -1 1572.8268 1347.6885)" class="st3" width="26.9" height="380.9"/>
<rect x="503.4" y="821.5" transform="matrix(-1 -1.224647e-16 1.224647e-16 -1 1026.0771 1685.8477)" class="st3" width="19.3" height="42.8"/>
<rect x="396.3" y="822.2" transform="matrix(-1 -1.224647e-16 1.224647e-16 -1 811.8502 1686.4844)" class="st3" width="19.3" height="42.1"/>
<g>
	<path class="st10" d="M558.8,476.1c0.5,0,0.9,0,1.4-0.2c4-0.9,6.6-5.4,5.8-10.1c0,0-31.6-182.2-34-183.1c-0.8-0.3-2.6-4-2.7-4
		c-0.4,0-0.8,0.1-1.1,0.2c-4,0.9-6.6,5.4-5.8,10.1l29.3,180.1C552.3,473.3,555.4,476.1,558.8,476.1z"/>
	<path class="st11" d="M623,295.8l29.2,175.6l-90.6,1.3l-32.4-193.9l82.4,4.6C617.8,283.6,622.2,291,623,295.8z"/>
	<path class="st10" d="M779.1,467.7c0,0.1,0,0.2,0,0.3l0,0c0,5.6-3.3,10.2-7.3,10.2l-115,0.3c-4.1,0-7.4-4.5-7.4-10.1
		c0-0.2,0-0.5,0-0.7H779.1z"/>
	<path class="st10" d="M745.8,467.7c0,0.1,0,0.2,0,0.3l0,0c0,5.7-4.9,10.3-11,10.3l-172.3,0.4c-6.1,0-11.1-4.6-11.1-10.3
		c0-0.2,0-0.5,0-0.7H745.8z"/>
</g>
<path class="st1" d="M710.3,785.5c-7,13-24.1,55.9-24.8,59.2c-0.2,0.9-2.6,4.1-3.4,4.7c-22.1,2.2-38.3-9.6-50.5-21.3
	c11.6,0.8,29.3-2.2,31.9-2.6c6.7-1.1,6-21.6,9.8-44.6C679.2,783.5,701.6,777.6,710.3,785.5z"/>
<path class="st10" d="M685.6,844.4c-1.8,7.2-9.4,20.4-10.9,20.1c-1.8-0.5-67-23.9-72.6-33.2c-3.5-5.8,14.4-6,28.7-5.3
	C643.1,837.6,681.8,846.3,685.6,844.4z"/>
<path class="st5" d="M921,601.9l-151.7,8.7L714,802.2l-44-8.6c0,0,24.7-198.2,39-214.7c39.2-45.2,176.1-39.9,176.1-39.9L921,601.9z"
	/>
<path class="st1" d="M803.9,795.8c-0.6,8.8-2.6,19.5-2.2,29.8c0.3,6.9,2.8,15.3,3.1,16.6c0.2,0.9-0.7,4.8-1.2,5.7
	c-19.2,11.2-38.8,7.2-54.8,1.7c10.9-4.1,18.4-12.2,21.2-15.2c4.6-5,1.3-20.1-4.8-42.5C771.8,791.8,792.8,792.3,803.9,795.8z"/>
<path class="st6" d="M905.3,525.5c0,0-141.5,2.7-177.1,54.7c-26.6,38.9,39.6,231,39.6,231l39.9-7.3c0,0-9.2-130.2-15.8-173.1
	c-1.1-7.3-6.3-28.8-6.3-28.8s17.7,5.3,50.5,7.4c45.2,2.9,110.9,2.1,125-5.3c24.5-12.7,34.8-47.3,24-69.9
	C974.4,511.7,905.3,525.5,905.3,525.5z"/>
<path class="st10" d="M804.8,841.9c2.5,4.6,3.7,22.2,2.3,22.5c-1.8,0.3-76.7,4.5-85.7-1.6c-5.5-3.8,14.2-7.9,27.5-13.2
	C764.9,855.1,804,846.8,804.8,841.9z"/>
<path class="st2" d="M796.6,431.3c0,0-41.2,10.3-61.8,16.9c-20.6,6.6-46.8,8.4-46.8,8.4l-22.2,11.7l47.5,1.4l110.5-9.8l9.4-25.8
	L796.6,431.3z"/>
<path class="st14" d="M827.5,348l-19.7,2.8c0,0-7,1.4-12.6,32.3c-5.6,30.9-13.6,47.3-13.6,47.3l48.2,19.2
	C865.1,400.9,889.2,343.2,827.5,348z"/>
<path class="st8" d="M826.3,320c-12.6,2.2-13.3,12.3-13.3,12.3l-12.9,53.6c0,0-1.2,22.7,1.4,31.4c5.1,16.9,15.3,23.6,32.1,29.3
	c22.3,7.6,31.1,26.8,40.7,38c16.7,19.4,3.1,42.7,3.1,42.7l116.4,16.3c0,0,1.6-22.7-24.8-86.6C946.1,401.6,891.3,308.6,826.3,320z"/>
<path class="st1" d="M867.8,326.4c-14.3-15.7-50.6,3.7-39.3,55.7c0.1,0.3,4.2,54.9,0.7,61.8c-2.1,4.2-52.7,2.1-83.3,8.5
	c0,0-33.1-12.3-44.7-13.1c-8.6-0.6-29.1,5.9-29.1,5.9s-26.4,19.5-22.7,22.7c5.1,4.4,17.5-14.8,27.9-14.8c0,0-19.1,14.7-13.2,15.1
	c5.9,0.3,14-4.1,18.3-5.4c4.2-1.3,19.9,6.6,33.7,8.2c2.3,0.3,11.3-0.2,21.8,1.2c10.6,1.4,22.6,5.3,36.7,5.9
	c37.8,1.8,80.6,5.9,91.2-4.7C873.6,465.6,891.8,352.8,867.8,326.4z"/>
<path class="st14" d="M874.1,441.3c-23.1-3-46.2-11.7-46.2-11.7s-1.9-45.7-2.1-47.5c-1.5-23.9-0.6-43.1,9.4-55.5
	c5-6.2,10.4-7.7,16.8-7.7c6,0,14.3,2.3,18.7,8c16.1,20.6,9.9,80.4,4.9,113.3l-0.2,1.4L874.1,441.3z"/>
<path class="st14" d="M815.9,231.5c1.8-15.4,1.8-73.9,37.3-72.7c35.6,1.2,35.8,40.4,64.6-6.8c26.7-43.7,76-15.5,71.4,20.7
	c5.1,0.5,10.1,2.2,14.6,5.2c15.6,10.3,19.3,32,8.4,48.5c-1.7,2.6-1.6,5.6-3.8,7.6c1.1,16.3-5.1,33.6-20.5,49.4
	c-42.2,43.2-65.3-15.1-88-16.5c-22.7-1.4-11.6,18.7-33.4,28.6c-21.8,9.9-36.6,3.4-60.9-39.5l-5.8-11.7
	C799.8,244.3,814.1,246.9,815.9,231.5z"/>
<path class="st14" d="M795.3,220.9c25,17.5,30.6,61.9,7.5,83.2c-15,13.8-44.5,16.2-60.8,2.5c-26.6-22.2-29.5-47.3-20.1-67.1
	C734.1,214.1,774.7,206.5,795.3,220.9z"/>
<path class="st1" d="M803.2,281.2c0,0,7.7,23.9,34.9,37.8c3.3,1.7-37.9,68-37.9,67.2c-0.1-5.1,7.1-35,5.4-38.7
	c-4.8-10-32.8-55.9-32.8-55.9L803.2,281.2z"/>
<path class="st8" d="M787.6,286.5l-14.9,5.1l0,0c0,0,12.3,20.1,22,36.6c3.4-2.8,6.5-6.9,8.9-12.5c3.9-9,4.5-18.3,3-27.1
	c-2.4-4.5-3.4-7.4-3.4-7.4L787.6,286.5z"/>
<path class="st1" d="M747.6,236.3c0,0,13.4-5.7,27.9-0.2c14.5,5.4,40.6,40.8,27.2,71.8c-13.5,31-45.6,15.6-59.9-4.1
	C728.5,284.1,714.3,254.5,747.6,236.3z"/>
<path class="st14" d="M805.5,253.8c-11.5-20-24.1-31.7-41.9-27.2c-17.8,4.6-33.7,7.6-34.9,28.4l-1.3,3.6c0,0,25.7-12.6,36.4-2.7
	c10.7,9.8,33,13,36,19.9c3,6.8,10.3,19.2,10.3,19.2l1.3-7.7C811.4,287.2,817,273.8,805.5,253.8z"/>
<path class="st1" d="M778.4,266.1c2.4,6.2,7.8,9.8,12.1,8c4.3-1.8,5.8-8.3,3.4-14.5c-2.4-6.2-7.8-9.8-12.1-8
	C777.5,253.4,776,259.9,778.4,266.1z"/>
<rect x="319.8" y="495.1" transform="matrix(-1 -1.224647e-16 1.224647e-16 -1 949.2822 1317.3887)" class="st15" width="309.7" height="327.3"/>
<rect x="625.2" y="487.8" transform="matrix(-1 -1.224647e-16 1.224647e-16 -1 1275.8892 1352.2578)" class="st3" width="25.6" height="376.7"/>
<rect x="313.1" y="490.6" transform="matrix(-1 -1.224647e-16 1.224647e-16 -1 640.5616 1357.9308)" class="st3" width="14.5" height="376.7"/>
<path class="st3" d="M262.7,501.4h557.7c5.5,0,9.9-4.4,9.9-9.9v-3.4c0-5.5-4.4-9.9-9.9-9.9H262.7c-5.5,0-9.9,4.4-9.9,9.9v3.4
	C252.8,497,257.2,501.4,262.7,501.4z"/>
<g>
	<path class="st6" d="M184.9,31.5C225.9-26.3,317.4,0.4,320,71.4c0,0.8,0.1,1.7,0.1,2.5c1.8,83.9-62,105.8-41.9,165.9
		c20.1,60.2,81,15.3,104.7,113.8c23.7,98.5-57.3,153.1-50,211.4c7.3,58.3,41.9,97.2,40.1,173.2c-1.4,56.5-103.9,231.6-103.9,231.6
		S132.3,820.2,128.7,720c-3.5-95.1,64.6-86.2,68.3-175.6c3.6-89.3-129.5-101.3-64.6-213.4c13.7-23.6,48.8-46.7,48.8-97.7
		s-46.2-128.8-9.7-182.3C175.8,44.4,180.3,37.9,184.9,31.5z"/>
	<path class="st5" d="M332.9,565c-7.3-58.3,73.7-112.9,50-211.4c-23.7-98.5-84.6-53.6-104.7-113.8c-20.1-60.2,43.8-82.1,41.9-165.9
		c0-0.8,0-1.7-0.1-2.5C318.4,27.8,283.3,0.9,246.9,0l-0.2,2.3c0,0-51.1,206.6-17,311.2c34,104.5,60.8,111.8,43.8,252.8
		c-17,141-4.4,403.5-4.4,403.5S371.6,794.7,373,738.2C374.8,662.2,340.2,623.3,332.9,565z"/>
	<g>
		<path class="st8" d="M355.9,1037.1H133.7c-28.3-26.7-45.5-63.4-44.9-103.7c0.3-20.3,4.4-38.1,12.8-55.5l286.4,3.3
			c7.9,17.7,12.2,37.1,11.8,57.5C399.3,977.1,382.6,1011.7,355.9,1037.1z"/>
	</g>
</g>
<g>
	<path class="st10" d="M327.5,590.1c0,0,120.9-36.3,125.7-35.4c4.8,0.9-14.2,41.2-11.8,54.2c0.8,4.2-103.5,63.8-126.6,59.4
		c-25.3-4.8-122.3-88.3-132.7-106.4c-11.6-20.2-31.8-70.7-18.3-89.7c6.1-8.7,21-20.2,31.4-17.8C236.3,464.2,280.7,537,327.5,590.1z"
		/>
	<path class="st11" d="M334.2,728.7c-0.8-3.6-25.9-61.9-27.1-67.9c-16.7-77.7-80.8-191.4-110.5-206c-4.8-2.4-39.1-2.6-39.1-2.6
		l17.7,8.8c20.2,18.4,42.8,39.8,57.2,63.5c41.8,69,70.2,227.9,74,227.7C310.7,751.8,335.9,736.6,334.2,728.7z"/>
	<path class="st12" d="M294.5,730.8c-58.7-34.1-67.9-114.7-92.7-158c-30.4-53-75.2-58.8-152.3,37.3
		C-45.1,727.9,3,964.8,133.6,1040.7l313.1-0.7c64.5-23.2,93.2-57.3,116.3-114C666,673.8,425.1,806.7,294.5,730.8z"/>
	<path class="st1" d="M433.4,992.5c0,0-2.2,38.6-2.2,38.7c-0.8,4.9-4,17-4,21.5c0,16.7,74.4-14.2,57.7-21.6
		c-1.5-0.7-11.8-9.5-12.3-15.2c-0.8-8.8-0.4-22.7-0.4-22.7L433.4,992.5z"/>
	<path class="st16" d="M483.9,1030.2c0,0-17.5,5.1-26.4,6.4c-9,1.3-20.7-9.5-27.1-6.6c-5.2,2.4-7.2,19.6-7.9,28.4
		c-0.2,2.8,1.9,5.2,4.7,5.3c20.6,1.1,98.8,4.7,119.1-1.2C556.8,1059.5,519.6,1042.1,483.9,1030.2z"/>
	<path class="st16" d="M642.5,953.8c0,0-17.5,5.1-26.4,6.4c-8.9,1.3-20.7-9.5-27.1-6.6c-5.2,2.4-7.2,19.6-7.9,28.4
		c-0.2,2.8,2.2,5.9,5,6.2c22.8,2.2,98.5,3.8,118.8-2.1C715.5,983,678.2,965.7,642.5,953.8z"/>
	<path class="st1" d="M569.2,922.5c0,0,20.9,29.4,22.9,35.9c2,6.5,50.5,11.3,50.5-4.7c0-0.2-15-12.4-19.3-18
		c-7.1-9.3-23.7-40.5-23.7-40.5L569.2,922.5z"/>
	<path class="st16" d="M118.5,281.2c0,0-23.6-16-33.6,12c0,0-13.3-4-19.1,9.7c0,0-22.9-1.7-21,31.5c0,0-11.5,0.4-10.1,13.8
		c1.4,13.4,10,20.7,10,20.7s-5.2,6,0.3,17.5c4.7,9.7,13.5,9.4,13.5,9.4s6.1,16.8,14.8,20.3c8.6,3.6,18.3-1.2,18.3-1.2
		s4.8,8.8,13.3,6c8.6-2.8,17.6-13.5,28.2-11.9c10.6,1.6,35.2-8,35.2-8s25.7-19,10.7-46.3c0,0,12-16.8-4.7-30.2c0,0,4-27.5-18.3-38.3
		C133.8,275.5,118.5,281.2,118.5,281.2z"/>
	<path class="st8" d="M493,698.2c-19.6-9.7-225.7,22.4-225.7,22.4l-24.7-39.4l-80.4,18.2c0,0-22.8,26.2-23.7,37.9
		c-3,38,14.4,101.8,34,108c69.9,22.1,220.2-23.1,241.3-27.9c0,0-0.8,34.1,5.6,103.6c2.5,27.5,5.8,57.8,8.9,84.2
		c18.4,0,36.8-0.4,55.2-2.8C483.4,1002.6,512.6,707.9,493,698.2z"/>
	<path class="st14" d="M623.6,918.3c-35.2-89-111.7-263.7-139.5-268.7c-36.3-6.4-216.9,71-216.9,71l183.1-3.8c0,0,1,1.8,9,40.2
		c6.2,29.9,75.1,135.3,114.4,193.7C591.9,942.6,609.8,935,623.6,918.3z"/>
	<path class="st9" d="M158.4,452.8c0,0-45.6-0.5-50.5,0.6c-4.8,1.1,3.8,186.1,9.8,255.2c5.9,69.1,15.4,79.4,15.4,79.4
		s65,0.3,110-13.9c46.7-14.8,57.8-69,57.8-69s-42.3-124.1-59.3-162.6c-10.9-24.6-32.5-52.3-54.5-74.9
		C174.8,454.8,158.4,452.8,158.4,452.8z"/>
	<path class="st1" d="M145.5,419.1l9.2,25c0,0,16,35.4,7.5,44.7c-8.4,9.4-52.5-35.9-52.5-35.9l-11-66L145.5,419.1z"/>
	<path class="st8" d="M102.3,408.3c13.2,20.4,35.9,29.7,51,32l-7.8-21.2l-46.8-32.2L102.3,408.3z"/>
	<path class="st1" d="M106.7,313.3c18.7-11.5,43.3-2.8,51.1,17.5c3.4,8.8,7.1,20,10.1,32.4c7.2,29.9-1.9,62.6-15.6,65.6
		c-13.6,3-55.7-8.1-66.5-50.5C79.2,352.2,87.1,325.4,106.7,313.3z"/>
	<path class="st1" d="M96.7,379.5c1.5,6.6-1.7,13-7.2,14.2c-5.4,1.2-11-3.2-12.5-9.8c-1.5-6.6,1.7-13,7.2-14.2
		C89.6,368.5,95.2,372.9,96.7,379.5z"/>
	<path class="st11" d="M109.6,452.7c0,0-53-2.1-65,9c-7.7,7.1,7.9,77.9,7.9,77.9s43.2,82.7,49.5,131C112.4,751,121.9,800.4,126,803
		c23.8,8.5,102.5-7.7,105.7-17C267.9,683.4,109.6,452.7,109.6,452.7z"/>
	<path class="st3" d="M365.7,622.8l35.2-148.4c0.9-3.8,4.3-6.6,8.3-6.6H473c5.6,0,9.7,5.3,8.2,10.7l-38.8,146.1
		c-1,3.6-4.2,6.2-7.9,6.3l-60.2,2.4C368.7,633.5,364.4,628.3,365.7,622.8z"/>
	<path class="st17" d="M424,619c-2.7,0.5-7.2,1.5-10.3,2.6c-3.3,1.2-6.8,1.3-9.8,1.9c-5.9,1.2-10.1,2.2-10.1,1.9
		c0.1-0.3-1.2-0.9,1.9-2.1c3.7-1.4,12.2-2.7,17.4-5.2c3-1.4,9.4-4,9.4-4s9-5.6,8.8-6.2c-0.8-3.3-8-1.2-11.8,1.2
		c-3.2,0.3-9.9,3.2-9.9,3.2s-14.8,2.9-15.2,0.8c-0.2-0.9,8.7-3.7,17-7.8c7.7-3.8,14.8-8.8,14.3-10.4c-0.9-2.7-9.8,0.7-9.8,0.7
		s-6.2,2.7-8.3,3.4c-2.5,0.9-10.1,2.9-10.1,2.9s-26.8,5.8-27,3.9c-0.2-2,1.3-7.2,2.8-8.2c1.5-0.9,5.3-1.2,6.8-2.1
		c1.5-0.9,2.8-3.4,1.8-5.3c-1-1.9-10.1-0.2-10.1-0.2s-7.4,1.4-11.4,4.8c-13.9,11.6-11.4,13.4-13.2,14.8c-2.2,1.7-38.8,5.7-38.8,5.7
		s-107.8,12.5-113.7,13l3.8,35.9c6.4,0.7,130.9-21,143.6-23.6c0,0,16.3,2.4,26.6,3.6s20.7-2.1,23.6-2.2c0.4,0,10.3-0.9,22.1-5.1
		c10.2-3.7-1.1-4.7-1.1-4.7s-20.1,3.5-20.1,1.9c0-1.2,11.1-2.5,22.5-6.4c2.9-1,5.8-2,8.4-3C431.1,622.4,431.6,617.5,424,619z"/>
	<path class="st15" d="M178.6,610.9c0,0,125.8-0.9,130.7,0c4.8,0.9,6.1,33.2,8.5,46.2c0.8,4.2-132.6,19.1-155.7,14.7
		c-25.3-4.8-88.8-74.7-103.6-98.2c-12.4-19.8-38.7-70.1-32.2-92.1c4-13.3,24.5-28.3,35.8-24.9C106.9,470.5,178.6,610.9,178.6,610.9z
		"/>
	<g>
		<path class="st1" d="M463.6,551.7c2.4-0.9,5.1,0.5,5.6,3c0.5,2.6,0.5,5.7-1.5,7.7c-4,4-30.7,6.9-30.7,3
			C437.1,562.4,455.2,555,463.6,551.7z"/>
		<path class="st1" d="M469.5,563.3c0,0,3.1,9.8,0.8,10c-2.3,0.2-30.9,4.2-32.3,0.8C436.5,570.8,465.7,561.4,469.5,563.3z"/>
		<path class="st1" d="M470.6,574.3c0,0,1.1,4.4-1.1,7.1c-2.2,2.7-29,2.8-30.3-1.4C438,575.8,469.5,571.1,470.6,574.3z"/>
		<path class="st1" d="M464.5,584.4c0,0,0.6,3.3-0.6,5c-1.1,1.6-21,2.7-23.6-1.2C437.8,584.3,461.6,580.4,464.5,584.4z"/>
	</g>
</g>
<g>
	<path class="st7" d="M469,357.2H298.1c-16.3,0-29.5-13.2-29.5-29.5v-59c0-16.3,13.2-29.5,29.5-29.5H469c16.3,0,29.5,13.2,29.5,29.5
		v59C498.5,344,485.3,357.2,469,357.2z"/>
	<polygon class="st7" points="341.8,341 414.6,456.4 384.5,341 	"/>
</g>
</svg>
