<?xml version="1.0" encoding="utf-8"?>
<!-- Generator: Adobe Illustrator 24.2.1, SVG Export Plug-In . SVG Version: 6.00 Build 0)  -->
<svg version="1.1" id="Layer_1" xmlns="http://www.w3.org/2000/svg" xmlns:xlink="http://www.w3.org/1999/xlink" x="0px" y="0px"
	 viewBox="0 0 763.1 1514" style="enable-background:new 0 0 763.1 1514;" xml:space="preserve">
<style type="text/css">
	.st0{opacity:0.1;fill:#606060;}
	.st1{fill:#F7A491;}
	.st2{fill:#F48C7F;}
	.st3{fill:#184655;}
	.st4{fill:#13375B;}
	.st5{fill:#3C8F7C;}
	.st6{fill:#50BFA5;}
	.st7{fill:#FAE0B2;}
	.st8{fill:#F47458;}
	.st9{fill:#FFFFFF;}
	.st10{fill:#355389;}
	.st11{fill:#466EB6;}
	.st12{fill:#F7CC7F;}
	.st13{fill:#F79C8D;}
	.st14{fill:#B75742;}
	.st15{fill:#86B1F2;}
	.st16{fill:#07345A;}
	.st17{fill:#F8A492;}
</style>
<ellipse class="st0" cx="514.5" cy="1505.8" rx="165.4" ry="8.2"/>
<ellipse class="st0" cx="183.4" cy="1499.8" rx="165.4" ry="8.2"/>
<g>
	<path class="st1" d="M400,185.1h268c25.6,0,46.3-20.7,46.3-46.3V46.3C714.3,20.7,693.6,0,668,0H400c-25.6,0-46.3,20.7-46.3,46.3
		v92.5C353.8,164.3,374.5,185.1,400,185.1z"/>
	<polygon class="st1" points="618.2,162.6 625,293.7 532.4,159.5 	"/>
</g>
<g>
	<path class="st2" d="M256.8,565.9l5.9-27.1c0,0,19.5,12.4,30.8,30c11.4,17.6,16.8,64.7,20,66.5c3.2,1.8,39.2-53.6,45.5-62.3
		c7.8-10.8,10.7-23.2,15.5-32.6c4.9-9.4,22-12.6,28.5-11.4c6.5,1.2-8.9,28.7-8.9,28.7s-38.9,67.6-51.9,104.7
		c-13,37.1-53.5,54.7-60,49.4C275.7,706.4,256.8,565.9,256.8,565.9z"/>
	<path class="st1" d="M375,545.5c0,0,1.6-7.1,6-8.6c4.4-1.5,12-0.2,12.5,0c0.5,0.2,8.9-4.4,8.9-4.4l-7,13c0,0-13.6,16-18.1,10
		C372.8,549.6,375,545.5,375,545.5z"/>
	<path class="st2" d="M404.8,533.2c0,0,4.9,25,3.7,30.2c-1.2,5.3-4.4,2.4-5,1.3c-2.4-4.7-4.1-20.7-4.1-20.7L404.8,533.2z"/>
	<path class="st2" d="M394.2,553.9c0,0,2.3,15.5,4.7,17.3c1.6,1.2,3.6,0.5,4.2-2.6s-3.1-22.2-3.1-22.2L394.2,553.9z"/>
	<path class="st3" d="M379.9,597.9l-8.1-4l34.6-71l0,0c4.5,2.2,6.4,7.6,4.2,12.1L379.9,597.9z"/>
	<path class="st4" d="M292.9,454.6c4.9-22.2,9.7-44.6-3.2-69c-10.4-19.7-28.4-31.1-49.3-33.6c-59.1-7-46.5,48.1-129,60.1
		c-25.7,3.7-49.5,7.3-70.9,20c-38.7,23-53.3,60-27.6,120.2c62.8,147.5,217,22.3,236.1-6.8C263.1,524,289.8,468.9,292.9,454.6z"/>
	<path class="st1" d="M56.6,1386c0,0-4.2,42.7-15,50.6c-10.8,7.8-25.2,36.9-18,52.6c2.3,4.9,6.8,7.7,11.9,9.3
		c15.2,4.7,31.4-3.2,37.8-17.7c3.6-8.1,6.8-18.9,7.4-32.6c1.6-34.7,12.4-52.4,12.4-52.4L56.6,1386z"/>
	<path class="st1" d="M222.8,1403.5c0,0,3.4,43.1,0.6,57.1c-1.5,7.5-9.7,22.9-5.9,30c3.8,7.1,8.1,8.8,8.1,8.8l98.1,1.6
		c5.3,0.1,1.8-3.3-2.5-6.5c-7.1-5.2-12.7-8.6-35.3-19.5c-1.5-0.7-6.8-4.1-8.7-5.3c-4.9-3-9.8-7.7-14-12.4c-7-7.8-7.7-45.8-7.7-45.8
		L222.8,1403.5z"/>
	<path class="st5" d="M299.5,830.6c0,0,12.4,70,4.2,115.9c-8.1,45.9-47,471.2-47,471.2l-43.3,2.4c0,0-9.1-177.7-7.4-202.4
		c1.6-24.7,14.5-66,14.5-66l-4.3-143.4l54.6-188.4L299.5,830.6z"/>
	<path class="st6" d="M172.4,815.8c0,0-34.1,51.2-42.2,93.5c-8.1,42.4,6,172.5-9.6,228c-8.4,30-40.5,76.4-45.3,115.3
		c-4.9,38.8-24,140.5-24,140.5l43.2,8.6l100.5-254l78.8-229.6L294,800L172.4,815.8z"/>
	<path class="st7" d="M199.9,524.7c0,0-29.8,3.4-47.7,22.8c-17.8,19.4,28.8,175.4,32.1,200.2c3.2,24.7-26.6,82.3-26.6,82.3
		s111.5,20.6,141.8,0.6c0,0,3.2-177.7,0-195.3c-3.2-17.6-30.3-89.4-36.8-96.5C256.3,531.7,199.9,524.7,199.9,524.7z"/>
	<path class="st1" d="M157.8,562.1c2.9-8.7,12.7-12.9,21.1-9.2c11.5,5,27.4,14.4,35.2,30.6c13,27.1,58.4,120,72.5,123.5
		c14.1,3.5,71.4-96.5,71.4-96.5s-1.6-17.6,3.2-27.6c4.9-10,19.5-20.6,21.6-17.1c2.2,3.5-8.1,12.4-8.1,14.1c0,1.8,4.3,2.9,10.3-0.6
		c5.9-3.5,9.2-10.7,9.2-10.7s9.8,17.7-0.5,33.6c-10.3,15.9-14.6,22.4-14.6,22.4s-66.5,147.7-90.9,149.4
		C265.5,775.7,135,631,157.8,562.1z"/>
	<path class="st1" d="M215,464.5c0,0-0.2,1.3-0.7,3.6c-2,10.8-9.8,46.7-15,56.6c-6.3,11.9,21.6,50,48.6,45.3c8-1.4-6.8-35-6.1-38.5
		c1.4-6.8,3.2-16.1,5.1-25.6c1.1-5.4,2.1-10.8,3.2-15.9c2.9-14.5,5.2-26.4,5.2-26.4L215,464.5z"/>
	<path class="st8" d="M214.3,468.1c0.4-2.3,0.7-3.6,0.7-3.6l40.3-1c0,0-2.3,11.9-5.2,26.4c-1,5.1-2.1,10.5-3.1,15.8
		c-6.2-0.9-12.7-3.9-19.3-9.6c-7.1-6.2-11.8-13.7-14.6-21.7C213.6,472,214,469.8,214.3,468.1z"/>
	<path class="st1" d="M239.2,368.7c0,0-16.5,2.3-28.4,17.7c-11.9,15.4-24.8,63,4.8,88.8c29.6,25.9,58.9-3.4,63.2-34.5
		C283.2,409.6,282.4,367.5,239.2,368.7z"/>
	<path class="st1" d="M288.4,430.1c-3.5,6.9-9.5,10.7-13.2,8.5c-3.8-2.2-4-9.5-0.5-16.3c3.5-6.9,9.5-10.7,13.2-8.5
		C291.7,415.9,291.9,423.2,288.4,430.1z"/>
	<path class="st4" d="M244.2,367.9c0,0-25.4,45.2-43.6,47.3c-18.2,2.1-20.6,26.1-20.6,26.1s6.5-55.4,24.5-66.1
		C222.6,364.6,244.2,367.9,244.2,367.9z"/>
	<path class="st1" d="M206.6,426c1.5,8-1.5,15.4-6.6,16.5c-5.1,1.1-10.5-4.6-12-12.6c-1.5-8,1.5-15.4,6.6-16.5
		C199.8,412.3,205.1,418,206.6,426z"/>
	<path class="st5" d="M76.3,1473.1c-23.6,4.3-39.3-9.5-47.4-19.8c-6,11.7-9.7,26.2-5.3,35.8c3.9,8.4,14.4,10.8,23.4,11.1
		c9.4,0.3,18.3-4.6,23-12.8C72.1,1483.6,74.4,1478.8,76.3,1473.1z"/>
	<path class="st5" d="M277.2,1469.8c-25.9,6.6-45.1,2.1-55.9-2.2c-2.8,7.8-6.4,17.6-4.5,23.3c2.4,6.9,5.8,8.5,8.8,8.6
		c23.7,0.6,86.8,1.5,104.9,1.7c2.5,0,3.9-2.9,2.3-4.8C328.3,1491,279.2,1470.9,277.2,1469.8z"/>
</g>
<g>
	<path class="st7" d="M449.3,270.4H233.1c-20.6,0-37.3-16.7-37.3-37.3v-74.6c0-20.6,16.7-37.3,37.3-37.3h216.2
		c20.6,0,37.3,16.7,37.3,37.3v74.6C486.6,253.7,469.9,270.4,449.3,270.4z"/>
	<polygon class="st7" points="288.4,249.8 260.1,334.8 342.5,249.8 	"/>
	<path class="st9" d="M281.1,201.5c0,7.5-6.5,13.6-14.6,13.6c-8,0-14.6-6.1-14.6-13.6c0-7.5,6.5-13.6,14.6-13.6
		C274.6,187.9,281.1,193.9,281.1,201.5z"/>
	<path class="st9" d="M355.6,201.5c0,7.5-6.5,13.6-14.6,13.6c-8,0-14.6-6.1-14.6-13.6c0-7.5,6.5-13.6,14.6-13.6
		C349.1,187.9,355.6,193.9,355.6,201.5z"/>
	<path class="st9" d="M430.1,201.5c0,7.5-6.5,13.6-14.6,13.6s-14.6-6.1-14.6-13.6c0-7.5,6.5-13.6,14.6-13.6S430.1,193.9,430.1,201.5
		z"/>
</g>
<g>
	<path class="st2" d="M381.8,861.2c18.2-5.3,18.7-2,21.1-2.7c2.7-0.9,24.8-30.8,24.8-30.8s65.7-87.6,69.1-92.5l20.7-113.4l62.2-0.5
		c0,0-26,122.5-28.5,128.5c-2.5,6.1-106.7,113.1-115.5,122.8c0,0-5.7,15.8-9.6,25.6c-3.9,9.8-12.3,16.9-13.9,19.5
		c-0.2,0.4-6,8.5-16,16.5c-8.6,6.8-4.1-3.8-4.1-3.8s13.4-15.7,11.8-16.6c-1.2-0.7-7.9,8.3-17.4,16c-2.4,2-4.8,3.9-7.1,5.7
		c-5.9,4.6-10.8,2.2-5.6-3.7c1.8-2.1,5-5.4,7.7-7.5c2.8-2.2,4.6-5.2,6.7-7.5c4.1-4.5,7.2-7.7,6.9-7.7c-0.4-0.1-0.3-1.6-2.9,0.4
		c-3.2,2.4-8.7,9.1-13.7,12.3c-2.8,1.8-8.5,5.9-8.5,5.9s-9.9,4.6-10.5,4.1c-2.9-2.7,2.8-7.8,7.1-9.7c1.9-2.6,8-6.8,8-6.8
		s10.1-11.3,8.4-12.9c-0.8-0.7-7.9,5.5-16,10.3c-7.5,4.5-16,7.8-17.3,6.4c-2.2-2.4,5.5-8.3,5.5-8.3s5.7-3.8,7.4-5.3
		c2.1-1.7,7.8-7.2,7.8-7.2s19-20.2,17.2-21.5c-1.8-1.4-7.7-3.2-9.4-2.4c-1.7,0.8-3.8,3.9-5.4,4.7c-1.7,0.8-4.7,0.4-6.1-1.6
		c-1.4-2,4.8-9.1,4.8-9.1S376.5,862.7,381.8,861.2z"/>
	<path class="st1" d="M485.1,1430.1c0,0,2.2,39.1,2.2,39.2c0.8,5,4,17.2,4,21.8c0,17-75.5-14.4-58.6-21.9c1.5-0.7,9.6-5.8,10.1-11.6
		c0.8-8.9,2.7-26.9,2.7-26.9L485.1,1430.1z"/>
	<path class="st3" d="M433,1469c0,0,17.7,5.2,26.8,6.5c9.1,1.3,21-9.6,27.5-6.7c7.1,3.2,6.4,35.2,6.4,35.2s-94.6,5.6-121.3-3
		C361.7,1497.6,396.7,1481,433,1469z"/>
	<path class="st1" d="M651.4,1433.8c0,0,2.2,39.1,2.2,39.2c0.8,5,4,17.2,4,21.8c0,17-75.5-14.4-58.6-21.9
		c1.5-0.7,11.9-9.7,12.4-15.4c0.8-8.9,0.4-23.1,0.4-23.1L651.4,1433.8z"/>
	<path class="st3" d="M599.3,1472.7c0,0,17.7,5.2,26.8,6.5c9.1,1.3,21-9.6,27.5-6.7c7.1,3.2,7.3,32.5,7.3,32.5s-101.1,7.3-124.9,0.4
		C525.3,1502.4,563,1484.8,599.3,1472.7z"/>
	<path class="st10" d="M531.8,869l-31.9,13.8l-67.1,320.6l2.7,240.3l53.8,1.3c0,0,25-210.2,25-226.5c0-16.3,115.9-285.1,115.9-285.1
		L531.8,869z"/>
	<path class="st11" d="M556.4,886.7c0,0,23.5,247,23.5,288.6c0,41.6,19.1,274.7,19.1,274.7l53.9-0.3c0,0,3.9-71,9.7-175.5
		c0.9-16.4-1.2-49.4,0-66.3c8.4-121.9,25-236.6,17.1-282c-1.3-7.3-3.7-26.5-8.3-31.3C636,857.9,556.4,886.7,556.4,886.7z"/>
	<path class="st5" d="M490.6,691.7l65.3-4.4c0,0,3.2-58.3,3.2-86.2c0-33.8,10.3-83.5,6.3-82.6c-11.3,2.6-30.8,13-39.8,25.6
		C494.2,587.8,490.6,691.7,490.6,691.7z"/>
	<path class="st6" d="M645.3,517.3c0,0,37.2,5.2,47,12.4c11,8.1,23.3,26.2,23.3,26.2s-45.7,216-45.8,252.4
		c-0.1,28.1,9.9,97.2,9.9,97.2s-138.1,8.7-190.4-11.9c0,0,16.5-82.1,16.5-103.7c0-21.6,19.8-217.7,24.3-231.3
		c4.1-12.4,11.5-34.8,36.8-40.3C592,512.7,645.3,517.3,645.3,517.3z"/>
	<path class="st1" d="M635.1,459.1l9.2,60.3c0,0-33.6,71.8-53.7,65.6c-16.9-5.2-6.5-68.8-6.5-68.8s9.2-34.1,6.4-51.2
		C587.8,448,635.1,459.1,635.1,459.1z"/>
	<path class="st8" d="M590.5,465.1c-2.8-17.1,44.6-5.9,44.6-5.9l0.8,5c-1.4,3.3-3.1,6.2-5.1,8.4c-10.6,11.3-27.1,18.1-41.4,18.6
		C590.8,481.9,591.7,472.1,590.5,465.1z"/>
	<g>
		<path class="st1" d="M642.9,373.8c1.3-0.5,10.7,68.7-7.1,87.7c-17.8,19-52.5,25.3-65,10.3c-13.8-16.6-13.1-90.9,14.6-110.5
			C613.1,341.7,642.9,373.8,642.9,373.8z"/>
		<path class="st4" d="M596,324.3c21.4,4.3,35.3,17.3,40.4,22.9c9.7,1.1,22.9,6.5,36.6,28.9c16.8,27.6,4.4,58.1-15.1,73.1
			c-19.5,15-19.3,32.4-19.3,32.4l-3-9c-2.3-6.8-3.2-14-2.4-21.1c0.5-4.3,1.4-8.9,3.2-12.7c4.7-10-10.1-16.7-14.2-25
			c-3.2-6.4-3.3-21.1-8.4-31.7l-6-8.1c0,0-13.9-10.7-27.4-7.7C566.6,369.3,568.5,318.7,596,324.3z"/>
		<path class="st1" d="M622.8,426.1c-0.1,8.4,3.7,15.4,8.6,15.4c4.9,0.1,9-6.7,9.1-15.1c0.1-8.4-3.7-15.4-8.6-15.4
			C627,410.8,623,417.6,622.8,426.1z"/>
	</g>
	<path class="st4" d="M550.3,737l-0.9,5.2c-0.5,2.7-3,4.4-5.6,4l-106.7-18.5c-2.6-0.5-4.4-3-4-5.6l0.9-5.2c0.5-2.6,3-4.4,5.6-4
		l106.7,18.5C549,731.8,550.8,734.4,550.3,737z"/>
	<path class="st1" d="M701.7,545.1c-12.5-0.4-23.6,82.2-15.7,90.4c7.9,8.1,9.5,109.9,9.5,109.9l-118.1-2.9l0,0
		c-2.3-1.5-27.1-18.2-30.6-21.8c-3.7-3.8-21.8-1.9-26.5,3.3c-4.8,5.2,10.6,1,14.9,3.8c4.2,2.9-3.2,10-3.2,10s-29.9,4.3-35.8-1.8
		c-5.8-6.2-21.4-16.7-23.6-10.5c-1.1,3.2,6.9,12.9,11.5,16.9c-5.7-4.2-12.4-8.7-14.7-7.9c-4.2,1.4-2.5,6.8-0.2,8.4
		c2.3,1.6,26.1,19.7,29.8,21c3.6,1.2,58.9,2.6,68.5,4.7c0,0,155.8,35.5,164.7,33.3c7.8-1.9,15.5-51.8,15.5-90
		C747.5,673.7,740.8,546.2,701.7,545.1z"/>
	<path class="st6" d="M685.4,526.3c0,0,21.8,5,44.3,30.3c20.5,23,33.4,151.8,33.4,151.8l-70.7,11.4l-5.6-62.3L667.9,629L685.4,526.3
		z"/>
</g>
</svg>
