<?xml version="1.0" encoding="utf-8"?>
<!-- Generator: Adobe Illustrator 24.2.1, SVG Export Plug-In . SVG Version: 6.00 Build 0)  -->
<svg version="1.1" id="Layer_1" xmlns="http://www.w3.org/2000/svg" xmlns:xlink="http://www.w3.org/1999/xlink" x="0px" y="0px"
	 viewBox="0 0 519.1 934.7" style="enable-background:new 0 0 519.1 934.7;" xml:space="preserve">
<style type="text/css">
	.st0{opacity:0.1;fill:#606060;}
	.st1{fill:#F7A491;}
	.st2{fill:#F48C7F;}
	.st3{fill:#184655;}
	.st4{fill:#13375B;}
	.st5{fill:#3C8F7C;}
	.st6{fill:#50BFA5;}
	.st7{fill:#FAE0B2;}
	.st8{fill:#F47458;}
	.st9{fill:#FFFFFF;}
	.st10{fill:#355389;}
	.st11{fill:#466EB6;}
	.st12{fill:#F7CC7F;}
	.st13{fill:#F79C8D;}
	.st14{fill:#B75742;}
	.st15{fill:#86B1F2;}
	.st16{fill:#07345A;}
	.st17{fill:#F8A492;}
</style>
<ellipse class="st0" cx="253.3" cy="828.2" rx="253.3" ry="12.6"/>
<ellipse class="st0" cx="219" cy="931.2" rx="71.4" ry="3.5"/>
<ellipse class="st0" cx="246.9" cy="921.6" rx="34.6" ry="1.7"/>
<g>
	<g>
		<path class="st12" d="M286.9,36.4c27.4-1.5,43,31.4,24.5,51.8c-3.3,3.7-5.1,8.5-5.2,13.4l-0.4,17c-0.1,4.7-3.8,8.5-8.5,8.8
			l-10.4,0.6c-4.7,0.3-8.8-3.1-9.4-7.8c-2.3-17-2-23.4-9-29.6C247.7,72.5,259.5,37.9,286.9,36.4z"/>
		<g>
			<path class="st9" d="M298.5,107.7c-1.4-13.8-2.4-29-2.5-34.7c-5.1,0.6-10.2,0.3-15.2-0.9c1.7,11.3,3.1,22.8,4.2,34.2l-1.5,0.1
				c-1.1-11.6-2.6-23.3-4.3-34.8c-3-0.9-6.5-2-8.1-4.6c-0.8-1.2-1-2.8-0.6-4.2c1-3.7,5.5-3.7,7.8-0.7c1.5,2,1.7,4.8,2.3,8.4
				c5,1.3,10.2,1.7,15.4,1c0-2.9,0.4-5.6,2-7.9c5.5-8.1,14.9,6.6-0.5,9.2c0.1,4.5,1.1,20.1,2.5,34.7L298.5,107.7z M299.1,64.5
				c-1.3,1.9-1.7,4.3-1.7,6.8c3.3-0.6,5.4-1.7,6.5-3.5C305.5,64.9,302.1,60.1,299.1,64.5z M273.1,61.7c-1.5,0.8-1.7,3.2-0.7,4.6
				c1.3,2.1,4.2,3.1,6.6,3.8c-0.4-2.8-0.7-5.3-1.9-7C276.2,61.9,273.2,61.6,273.1,61.7z"/>
		</g>
		<path class="st5" d="M306.2,101.2c0,0.1,0,0.3,0,0.4l-0.4,17c-0.1,4.7-3.8,8.5-8.5,8.8l-10.4,0.6c-4.7,0.3-8.8-3.1-9.4-7.8
			c-1-7.6-1.5-13-2.4-17.3L306.2,101.2z"/>
		<g>
			<path class="st7" d="M303.8,20l4.7-16.2c0.5-1.6-0.4-3.2-2-3.7c-1.6-0.5-3.2,0.4-3.7,2l-4.7,16.2c-0.5,1.6,0.4,3.2,2,3.7
				C301.7,22.4,303.3,21.5,303.8,20z"/>
		</g>
		<g>
			<path class="st7" d="M328.9,51l16.9-5.4c1.6-0.5,2.4-2.2,1.9-3.7c-0.5-1.6-2.2-2.4-3.7-1.9l-16.9,5.4c-1.6,0.5-2.4,2.2-1.9,3.7
				C325.7,50.7,327.3,51.5,328.9,51z"/>
		</g>
		<g>
			<path class="st7" d="M357.7,100.1c0.9-1.4,0.4-3.2-0.9-4.1c-5.2-3.2-10.7-6-16.4-8.2c-1.5-0.6-3.2,0.2-3.8,1.7
				c-0.6,1.5,0.2,3.2,1.7,3.8c5.3,2.1,10.5,4.7,15.4,7.7C355,101.9,356.9,101.5,357.7,100.1z"/>
		</g>
		<g>
			<path class="st7" d="M261,28.7c1.4-0.8,2-2.5,1.3-4c-3.6-6.9-6.5-14.1-8.5-21.6c-0.4-1.6-2.1-2.5-3.6-2c-1.6,0.4-2.5,2.1-2,3.6
				c2.2,7.9,5.2,15.5,9,22.7C257.8,28.9,259.6,29.4,261,28.7z"/>
		</g>
		<g>
			<path class="st7" d="M248.2,54.8c0.1-1.6-1.1-3-2.7-3.2l-19.1-1.4c-1.6-0.1-3,1.1-3.2,2.7c-0.1,1.6,1.1,3,2.7,3.2l19.1,1.4
				C246.7,57.7,248.1,56.4,248.2,54.8z"/>
		</g>
		<g>
			<path class="st7" d="M229.4,109.1c0.3-0.1,0.5-0.2,0.8-0.3c5.8-3.1,11.3-6.9,16.3-11.2c1.2-1.1,1.4-2.9,0.3-4.2
				c-1.1-1.2-2.9-1.4-4.2-0.3c-4.7,4-9.8,7.5-15.3,10.5c-1.4,0.8-2,2.6-1.2,4C226.8,108.8,228.2,109.3,229.4,109.1z"/>
		</g>
	</g>
	<path class="st12" d="M476.6,460.4c-65.6-84.2-104.8-80-132.2-34.7c-22.4,37-31.8,106.4-83.6,134.9
		C145.6,623.9-5.1,601.9,55.2,781.6c16.8,50.2,42.8,46.3,54.8,46.6l292.9-0.3C518.2,764.5,557,563.7,476.6,460.4z"/>
	<g>
		<g>
			<path class="st10" d="M415,303.8c6.7-33-8.8-65.6-38.4-77.9c0.2-18.8-7.2-37.6-20-50.4c-25.2-25.3-77.1-36.3-95.6-4
				c-24.5,13.9-22.9,31.1-15.6,58.5c-23.7,24.6-15,65,19.5,86c-0.5,27.6-1.3,69.3,22.8,81.1c5.8,2.8,14.8,6.8,16,8
				c-1.5-1.4,17.8,52.6,78,27.9C443,407.8,454.9,336.7,415,303.8z"/>
			<path class="st2" d="M160.1,526.2c4.8-4.8,13.3-9,12.8-9.7c-2-2.8-23,18.9-21.6,12.8c0.8-3.4,15.8-21.1,21.1-21.8
				c5.2-0.6,38.7-5.9,38.7-5.9l77.4-51.4c0,0,3.8-60.8-12.6-101.8c18-5.5,21.5-6.7,39.9-5.2c10.5,41.6,21.9,111.6,8.2,132
				c-5.8,8.6-106.3,41.8-106.3,41.8s-21.8,8.2-25.8,8.4c-3.1,0.2-11.5-0.5-15.7,0.1c-9.4,1.5-21,15.4-21.8,13.8
				C153.7,538.1,155.1,531.1,160.1,526.2z"/>
			<path class="st8" d="M266.4,343.5c7.3-13.4,14.8-24.1,14.8-24.1c7.5-13.4,27-20.2,27-20.2s6.5,0.1,14,0.5
				c0.5,1.2,0.9,2.1,1.4,2.5c2.8,2.1,18.9-0.6,29.3,6.5c34.9,30,25.2,175.4,22.5,221.3l-87.1,0.4c0,0-5.8-98.2-27.3-123.6
				C246,389,255.6,363.4,266.4,343.5z"/>
			<path class="st13" d="M242.5,855c-0.9-1.7-13-30.9-22.9-43.9C205.3,792.2,81.1,621.3,86.3,579.7c2.2-18.2,56-33.6,62.4-34.7
				c34.2,4.6-1.7,34.1,24,58.3c-16.7,5.7-26.6,12.9-23,17.6c14.5,18.8,91.3,170.5,94.6,172.4C259.2,802,265,798,265,798
				s-3.4,85.3-10.5,82.6C247.4,877.9,253.1,874.4,242.5,855z"/>
			<path class="st14" d="M271.3,798.5L257,884.4c-3.2,11.1-8.7,11-10,9.5c-2.9-3.1-4.2-26-4.5-39.1c6.5-19.9,5.9-57.4,1.9-61.6
				C254,793.4,271.3,796.6,271.3,798.5z"/>
			<path class="st1" d="M220,587.9c-19.3-31.9-18.2-27.9-51.7-42.3c-13.4,5.4-58.4,33.6-64.1,38.8l71.5,51.8
				C173.3,630.4,198.2,601.7,220,587.9z"/>
			<path class="st1" d="M314.3,249.9c0,0,5.8,41.8,9.9,52c4.1,10.2-22.4,31.9-44.5,38.5c-22,6.6,6.7-22.5,5.8-33.3
				c-0.9-10.9-4.9-62.3-4.9-62.3L314.3,249.9z"/>
			<path class="st8" d="M281.8,259.5c-0.6-8.5-1.1-14.8-1.1-14.8l33.7,5.1c0,0,0.8,4.9,1.8,11.9
				C302.4,269.7,290.2,267.2,281.8,259.5z"/>
			<path class="st1" d="M303.7,173.5c0,0,13.3,3,21.5,15.5c8.2,12.5,13.8,49.5-13.2,66.7c-27,17.2-48-7.1-48.3-30.9
				C263.4,201,268.5,169.3,303.7,173.5z"/>
			<path class="st1" d="M257.6,217.4c2.3,5.7,6.9,9.3,10.2,8c3.3-1.3,4.2-7.1,1.9-12.8c-2.3-5.7-6.9-9.3-10.2-8
				C256.1,205.9,255.3,211.6,257.6,217.4z"/>
			<path class="st1" d="M325.6,222.1c-2,6.2-0.2,12.3,4,13.6c4.2,1.3,9.1-2.6,11.1-8.8c2-6.2,0.2-12.3-4-13.6
				C332.5,212,327.6,215.9,325.6,222.1z"/>
			<path class="st11" d="M223.9,532.7c14.9-1.4,64.2-6.4,64.2-6.4l87.4-11.8c0,0,15.5,36.9,16.1,60.1c1.1,40.5-36.2,74.7-68.1,72.7
				c-19-1.2-126.5-3.5-147.4-11.3c-4.3-33-9.3-68.8-31.6-92.5C180.1,538.6,203.7,534.6,223.9,532.7z"/>
			<path class="st1" d="M222.8,838.3c-2.4-2.5-21.6-133.7-33.2-188.8c-2.8-13.3-11.2-24.6-23.1-31.1l-62.4-34
				c-21.6,19.8,79.2,241.7,88.4,265c6.4,16,10.3,49.1,10.8,51.1c5.2,22.7-1.6,24.6,4.9,29.4c6.5,4.8,35.4-78.1,35.4-78.1
				S235.5,851.4,222.8,838.3z"/>
			<path class="st10" d="M241.6,538.4L241.6,538.4c0,3.3-3,6-6.8,6l-105.9,0.2c-3.8,0-7.5-3.2-8.7-7.3l1.9,1.3c0-3.3,3-6,6.8-6
				l105.9-0.2C238.5,532.4,241.6,535.1,241.6,538.4z"/>
			<g>
				<path class="st10" d="M129.9,542.5c0.6,0,1.3,0,1.9-0.1c5.5-0.7,9.1-4.2,8-7.8L99.5,394.7c-1-3.6-6.3-6-11.8-5.3
					c-5.5,0.7-9.1,4.2-8,7.8L120,537.1C121,540.3,125.2,542.5,129.9,542.5z"/>
			</g>
			<path class="st1" d="M161.1,523.5c6.1-3,15.5-4.4,15.2-5.2c-1-3.3-28,13.9-24.8,8.5c1.8-3,21.8-18.2,27.1-17.2
				c5.1,1,38.6,6.3,38.6,6.3l86.2-31.1c0,0,16.4-53.6,13.5-97.6c18.8,0.4,31.9,3.5,49,10.6c-2.9,42.8-13.8,112.9-33.1,128
				c-8.1,6.4-114,6.8-114,6.8s-23.2,1-27.2,0c-3-0.8-10.8-4.1-15-4.7c-9.4-1.5-24.8,8.2-25,6.4C151.4,532.9,155,526.6,161.1,523.5z"
				/>
			<path class="st14" d="M310.9,340.4c1.2-13.5,2.9-27.2,16.7-33c8.6-3.6,18.8-2.3,26.5,2.7c9.2,5.9,12.9,16.7,14,27.2
				c2.7,23.8,3.9,48.7,2.3,72.6c-17.1-7.1-40.4-3.3-59.1-3.7C307.2,385.2,309.4,358,310.9,340.4z"/>
		</g>
		<path class="st1" d="M173.9,510.8c-14.7,3.8-13.9,3.5-14.5,3.9c-10.4,6.6-9.6,9.4,6.4,2.6c0.4-0.2,0.8-0.3,1.3-0.3l7.6,0.1
			c2.9,0,4.3-3.6,2.1-5.6l0,0C176,510.8,175,510.5,173.9,510.8z"/>
		<path class="st8" d="M202.8,895.6c0,0,0.6,10.4-2.9,18.7c-3.5,8.3-16.9,11.5-13.6,15.8c3.2,4.3,29.1,0,29.1,0l29.9-73.1
			c1.2-2.7,0.5-5.9-1.7-7.9c-3.6-3.1-10.2-7.6-20.6-10.7C223,838.5,224.6,884.3,202.8,895.6z"/>
	</g>
</g>
</svg>
