<?xml version="1.0" encoding="utf-8"?>
<!-- Generator: Adobe Illustrator 24.2.1, SVG Export Plug-In . SVG Version: 6.00 Build 0)  -->
<svg version="1.1" id="Camada_1" xmlns="http://www.w3.org/2000/svg" xmlns:xlink="http://www.w3.org/1999/xlink" x="0px" y="0px"
	 viewBox="0 0 360.5 144.6" style="enable-background:new 0 0 360.5 144.6;" xml:space="preserve">
<style type="text/css">
	.st0{fill:#880E4F;}
	.st1{fill:none;stroke:#000000;stroke-width:2;stroke-miterlimit:10;}
	.st2{fill:#E65100;}
	.st3{clip-path:url(#SVGID_2_);fill:#E65100;}
	.st4{clip-path:url(#SVGID_2_);}
	.st5{fill:#FFFFFF;}
	.st6{fill:none;}
	.st7{fill:#606060;}
</style>
<g>
	<path class="st7" d="M192.7,28.8l5.3,5.3v21.3l-5.3,5.3l5.3,5.3v22.7l-5.3,5.3h-27.8V28.8H192.7z M185.9,55.6l1.2-1.3V40.5
		l-1.2-1.3h-10v16.4H185.9z M185.9,66.2h-10v17.3h10l1.2-1.3V67.4L185.9,66.2z"/>
	<path class="st7" d="M228.3,80.1h-13.4L212,94.2h-11.2l15.5-65.4h10.7l15.5,65.4h-11.2L228.3,80.1z M226.2,69.5l-4.6-22l-4.6,22
		H226.2z"/>
	<path class="st7" d="M247.2,94.2V28.8h28.2l5.3,5.3v29.2l-5.3,5.3l5.3,25.5H270l-5.3-25.5h-6.5v25.5H247.2z M268.7,58.1l1.2-1.3
		V40.7l-1.2-1.2h-10.5v18.7H268.7z"/>
	<path class="st7" d="M287.7,94.2V28.8H319v10.6h-20.4v16.3h15.1v10.6h-15.1v17.4H319v10.6H287.7z M306.9,1.7l5.7,6.5l-15.2,13.4
		l-3.3-1.5l7.6-15.4L306.9,1.7z"/>
</g>
<g>
	<path class="st2" d="M169.5,137.5c-1.7,0-3-0.3-3.9-1c-1-0.7-1.6-1.6-2-2.9c-0.4-1.2-0.6-2.7-0.6-4.4v-6.6c0-1.7,0.2-3.2,0.6-4.4
		c0.4-1.2,1.1-2.2,2-2.9c1-0.7,2.3-1,3.9-1s3,0.3,3.9,1c0.9,0.7,1.6,1.6,2,2.9c0.4,1.2,0.6,2.7,0.6,4.4v6.6c0,1.7-0.2,3.2-0.6,4.4
		c-0.4,1.2-1.1,2.2-2,2.9C172.4,137.1,171.1,137.5,169.5,137.5z M169.5,134.4c0.8,0,1.4-0.2,1.7-0.7s0.5-1.1,0.6-1.9
		c0.1-0.8,0.1-1.6,0.1-2.4v-7.1c0-0.9,0-1.7-0.1-2.4c-0.1-0.8-0.3-1.4-0.6-1.9c-0.3-0.5-0.9-0.7-1.7-0.7c-0.8,0-1.4,0.2-1.7,0.7
		c-0.3,0.5-0.5,1.1-0.6,1.9c-0.1,0.8-0.1,1.6-0.1,2.4v7.1c0,0.8,0,1.6,0.1,2.4c0.1,0.8,0.3,1.4,0.6,1.9S168.7,134.4,169.5,134.4z"/>
	<path class="st2" d="M179.8,144.6v-30h4.2v1.8c0.5-0.6,1.1-1.1,1.8-1.5s1.5-0.6,2.5-0.6c1.2,0,2.1,0.3,2.8,0.9
		c0.7,0.6,1.2,1.4,1.5,2.3c0.3,0.9,0.6,1.9,0.7,2.8s0.2,1.8,0.2,2.4v5.5c0,1.6-0.2,3.1-0.5,4.5s-0.9,2.6-1.7,3.4
		c-0.8,0.9-2,1.3-3.5,1.3c-0.8,0-1.5-0.2-2.1-0.6c-0.6-0.4-1.2-0.9-1.7-1.4v9.1H179.8z M187,134.2c0.7,0,1.2-0.3,1.6-0.8
		c0.3-0.5,0.5-1.3,0.6-2.2c0.1-0.9,0.1-1.9,0.1-3v-5.5c0-0.9-0.1-1.8-0.2-2.6c-0.1-0.8-0.3-1.4-0.7-1.9s-0.9-0.7-1.6-0.7
		c-0.5,0-1.1,0.1-1.6,0.4c-0.5,0.2-0.9,0.5-1.3,0.8v14.4c0.4,0.3,0.8,0.5,1.3,0.7C185.8,134.1,186.4,134.2,187,134.2z"/>
	<path class="st2" d="M203.4,137.5c-1.7,0-3-0.3-3.9-1c-1-0.7-1.6-1.6-2-2.9s-0.6-2.7-0.6-4.4v-6.6c0-1.7,0.2-3.2,0.6-4.4
		s1.1-2.2,2-2.9c1-0.7,2.3-1,3.9-1c1.7,0,3,0.3,3.9,1c0.9,0.7,1.6,1.6,2,2.9c0.4,1.2,0.6,2.7,0.6,4.4v6.6c0,1.7-0.2,3.2-0.6,4.4
		c-0.4,1.2-1.1,2.2-2,2.9C206.4,137.1,205.1,137.5,203.4,137.5z M203.4,134.4c0.8,0,1.4-0.2,1.7-0.7c0.3-0.5,0.5-1.1,0.6-1.9
		c0.1-0.8,0.1-1.6,0.1-2.4v-7.1c0-0.9,0-1.7-0.1-2.4c-0.1-0.8-0.3-1.4-0.6-1.9c-0.3-0.5-0.9-0.7-1.7-0.7c-0.8,0-1.4,0.2-1.7,0.7
		c-0.3,0.5-0.5,1.1-0.6,1.9c-0.1,0.8-0.1,1.6-0.1,2.4v7.1c0,0.8,0,1.6,0.1,2.4c0.1,0.8,0.3,1.4,0.6,1.9S202.6,134.4,203.4,134.4z"/>
	<path class="st2" d="M213.9,137.2v-22.5h4.2v3.2c0.8-1.4,1.7-2.3,2.5-2.8c0.8-0.5,1.7-0.7,2.5-0.7c0.1,0,0.2,0,0.3,0s0.2,0,0.4,0
		v4.6c-0.3-0.1-0.7-0.2-1.1-0.3c-0.4-0.1-0.8-0.1-1.2-0.1c-0.7,0-1.2,0.1-1.8,0.4s-1.1,0.9-1.6,1.7v16.5H213.9z"/>
	<path class="st2" d="M232.3,137.5c-1.2,0-2.1-0.2-2.8-0.7c-0.7-0.4-1.2-1.1-1.6-1.9s-0.5-1.8-0.5-2.8v-14.7h-2.4v-2.8h2.4V108h4.2
		v6.6h3.6v2.8h-3.6v14.4c0,0.9,0.1,1.5,0.4,1.9s0.8,0.6,1.6,0.6c0.2,0,0.4,0,0.7,0c0.3,0,0.5-0.1,0.8-0.1v3.1
		c-0.5,0.1-1,0.1-1.4,0.2C233.3,137.5,232.8,137.5,232.3,137.5z"/>
	<path class="st2" d="M241.6,137.5c-0.9,0-1.6-0.2-2.1-0.7c-0.5-0.5-0.8-1.1-1-1.8c-0.2-0.7-0.3-1.4-0.3-2.1v-18.3h4.2v17
		c0,0.8,0.1,1.4,0.4,1.9c0.2,0.5,0.7,0.7,1.4,0.7c0.5,0,1-0.1,1.5-0.4c0.5-0.3,1-0.6,1.5-1v-18.2h4.2v22.5h-4.2v-2.2
		c-0.7,0.7-1.6,1.3-2.5,1.8C243.7,137.2,242.7,137.5,241.6,137.5z"/>
	<path class="st2" d="M255.5,137.2v-22.5h4.2v2.2c0.8-0.7,1.6-1.3,2.5-1.8s1.9-0.7,3-0.7c0.9,0,1.6,0.2,2.1,0.7
		c0.5,0.5,0.8,1.1,1,1.8s0.3,1.4,0.3,2.1v18.3h-4.2v-17c0-0.8-0.1-1.4-0.4-1.9c-0.2-0.4-0.7-0.7-1.4-0.7c-0.5,0-1,0.1-1.5,0.4
		c-0.5,0.3-1,0.6-1.5,1v18.2H255.5z"/>
	<path class="st2" d="M272.9,111.3v-4.4h4.2v4.4H272.9z M272.9,137.2v-22.5h4.2v22.5H272.9z"/>
	<path class="st2" d="M286.8,137.5c-1.9,0-3.3-0.7-4.3-2.1c-0.9-1.4-1.4-3.8-1.4-7.1v-4.4c0-1.7,0.1-3.3,0.4-4.8
		c0.3-1.5,0.8-2.6,1.6-3.5c0.8-0.9,2-1.3,3.5-1.3c0.8,0,1.4,0.2,2.1,0.5c0.6,0.3,1.2,0.8,1.7,1.2v-10.5h4.2v31.6h-4.2v-1.4
		c-0.5,0.5-1,0.9-1.6,1.3C288.2,137.3,287.5,137.5,286.8,137.5z M287.8,134.2c0.4,0,0.8-0.1,1.2-0.2c0.4-0.1,0.9-0.4,1.3-0.6v-14.8
		c-0.4-0.3-0.8-0.5-1.2-0.7s-0.9-0.3-1.4-0.3c-1,0-1.6,0.5-2,1.4s-0.5,2-0.5,3.3v6.4c0,1,0.1,2,0.2,2.8c0.1,0.8,0.4,1.5,0.7,2
		C286.6,134,287.1,134.2,287.8,134.2z"/>
	<path class="st2" d="M302.8,137.5c-0.9,0-1.7-0.3-2.3-0.8s-1.2-1.2-1.6-2c-0.4-0.8-0.6-1.6-0.6-2.5c0-1.4,0.2-2.6,0.7-3.5
		c0.5-1,1.1-1.8,1.9-2.4c0.8-0.7,1.8-1.2,2.8-1.7c1.1-0.5,2.2-1,3.4-1.4v-1.6c0-0.9-0.1-1.7-0.2-2.3c-0.1-0.6-0.3-1-0.6-1.3
		c-0.3-0.3-0.8-0.4-1.5-0.4c-0.6,0-1,0.1-1.4,0.4s-0.6,0.6-0.8,1.1c-0.2,0.5-0.2,1-0.2,1.7v1.1l-4.1-0.2c0.1-2.5,0.6-4.3,1.7-5.5
		c1.1-1.2,2.8-1.8,5.1-1.8c2.2,0,3.8,0.6,4.8,1.8c0.9,1.2,1.4,3,1.4,5.3v10.3c0,0.7,0,1.4,0.1,2c0,0.7,0.1,1.3,0.2,1.8
		c0.1,0.6,0.1,1.1,0.2,1.6h-3.8c-0.1-0.4-0.2-0.9-0.3-1.6c-0.1-0.6-0.2-1.2-0.3-1.7c-0.3,0.9-0.8,1.7-1.5,2.5
		C305.2,137.1,304.1,137.5,302.8,137.5z M304.5,133.9c0.4,0,0.8-0.1,1.2-0.4c0.4-0.2,0.7-0.5,1-0.8s0.5-0.5,0.6-0.7v-6.4
		c-0.6,0.4-1.3,0.7-1.8,1.1c-0.6,0.4-1.1,0.7-1.5,1.2c-0.4,0.4-0.8,0.9-1,1.4s-0.4,1.1-0.4,1.7c0,0.9,0.2,1.6,0.5,2.1
		C303.3,133.6,303.8,133.9,304.5,133.9z"/>
	<path class="st2" d="M320.6,137.5c-1.9,0-3.3-0.7-4.3-2.1c-0.9-1.4-1.4-3.8-1.4-7.1v-4.4c0-1.7,0.1-3.3,0.4-4.8
		c0.3-1.5,0.8-2.6,1.6-3.5c0.8-0.9,2-1.3,3.5-1.3c0.8,0,1.4,0.2,2.1,0.5c0.6,0.3,1.2,0.8,1.7,1.2v-10.5h4.2v31.6h-4.2v-1.4
		c-0.5,0.5-1,0.9-1.6,1.3C322,137.3,321.4,137.5,320.6,137.5z M321.7,134.2c0.4,0,0.8-0.1,1.2-0.2c0.4-0.1,0.9-0.4,1.3-0.6v-14.8
		c-0.4-0.3-0.8-0.5-1.2-0.7s-0.9-0.3-1.4-0.3c-1,0-1.6,0.5-2,1.4s-0.5,2-0.5,3.3v6.4c0,1,0.1,2,0.2,2.8c0.1,0.8,0.4,1.5,0.7,2
		C320.4,134,320.9,134.2,321.7,134.2z"/>
	<path class="st2" d="M338.9,137.5c-1.8,0-3.1-0.3-4.1-1c-1-0.7-1.6-1.7-2-3c-0.4-1.3-0.6-3-0.6-4.9v-5.1c0-2,0.2-3.7,0.6-5
		c0.4-1.3,1.1-2.3,2-3c1-0.7,2.3-1,4-1c1.9,0,3.3,0.4,4.2,1.2c0.9,0.8,1.5,1.9,1.8,3.4c0.3,1.5,0.4,3.2,0.4,5.3v1.8h-8.9v4.5
		c0,0.9,0.1,1.7,0.3,2.2c0.2,0.6,0.4,1,0.8,1.3c0.4,0.3,0.9,0.4,1.5,0.4c0.6,0,1.1-0.1,1.4-0.4c0.3-0.3,0.5-0.7,0.7-1.3
		c0.1-0.6,0.2-1.2,0.2-2v-1.4h4.1v0.9c0,2.3-0.5,4-1.4,5.3C342.8,136.8,341.2,137.5,338.9,137.5z M336.4,123.7h4.8v-2
		c0-0.9-0.1-1.7-0.2-2.4c-0.1-0.6-0.3-1.1-0.6-1.4c-0.3-0.3-0.8-0.5-1.5-0.5c-0.7,0-1.2,0.2-1.5,0.5c-0.4,0.3-0.6,0.8-0.7,1.6
		c-0.1,0.7-0.2,1.8-0.2,3.1V123.7z"/>
	<path class="st2" d="M354.3,137.5c-1.8,0-3.3-0.6-4.4-1.7c-1.1-1.2-1.8-2.7-1.9-4.6l3.5-1.1c0.2,1.4,0.6,2.5,1.1,3.2
		c0.5,0.7,1.2,1.1,2.2,1.1c0.8,0,1.3-0.2,1.7-0.6s0.6-1,0.6-1.7c0-0.6-0.1-1.2-0.4-1.8c-0.3-0.5-0.8-1.1-1.4-1.6l-3.9-3.3
		c-0.8-0.7-1.4-1.4-2-2.3c-0.5-0.8-0.8-1.9-0.8-3.2c0-1.2,0.2-2.2,0.7-3c0.5-0.8,1.2-1.4,2-1.9c0.9-0.4,1.9-0.6,3.1-0.6
		c1.8,0,3.2,0.6,4.1,1.7c0.9,1.2,1.5,2.6,1.6,4.2l-2.8,1.1c-0.1-0.8-0.3-1.5-0.5-2s-0.5-1-0.9-1.4c-0.4-0.3-0.8-0.5-1.4-0.5
		c-0.7,0-1.2,0.2-1.6,0.7s-0.6,1-0.6,1.6c0,0.4,0.1,0.8,0.3,1.2c0.2,0.4,0.5,0.7,0.9,1.1l4,3.7c0.5,0.5,1.1,1,1.5,1.6
		s0.9,1.2,1.2,1.9c0.3,0.7,0.5,1.6,0.5,2.5c0,1.3-0.3,2.3-0.8,3.2c-0.5,0.9-1.2,1.5-2.2,1.9C356.6,137.3,355.5,137.5,354.3,137.5z"
		/>
</g>
<g>
	<rect y="87.6" class="st6" width="0.5" height="56.6"/>
	<polygon class="st2" points="144.7,0 77.6,0 77.6,52.4 58.9,69.9 77.6,87.3 77.6,144.2 144.7,144.2 	"/>
	<polygon class="st7" points="35,144.2 39.3,140 39.3,91.5 35,87.6 0.5,87.6 0.5,144.2 	"/>
	<polygon class="st7" points="0.5,53 35,53 39.3,48.7 39.3,3.4 35.9,0 0.5,0 	"/>
</g>
<rect x="0.5" class="st6" width="144.2" height="144.2"/>
</svg>
